<?xml version='1.0' encoding='utf-8'?>
<svg xmlns="http://www.w3.org/2000/svg" version="1.0" width="6000.000000pt" height="4000.000000pt" viewBox="0 0 6000.000000 4000.000000" preserveAspectRatio="xMidYMid meet" id="svg58"> <metadata id="metadata64"> </metadata> <defs id="defs62"/> <g transform="translate(0.000000,4000.000000) scale(0.100000,-0.100000)" fill="#000000" stroke="none" id="g56"> <path d="M30810 36555 c-229 -59 -403 -200 -504 -410 -59 -121 -81 -215 -81 -345 0 -246 112 -474 306 -620 120 -90 249 -141 396 -156 l63 -7 0 -66 c0 -36 -4 -165 -10 -286 -5 -121 -12 -303 -15 -405 -8 -270 -24 -746 -30 -890 -2 -69 -7 -199 -10 -290 -9 -274 -15 -459 -20 -585 -2 -66 -7 -192 -10 -280 -3 -88 -7 -218 -10 -290 -5 -128 -10 -277 -20 -590 -3 -88 -7 -221 -10 -295 -12 -334 -19 -538 -30 -870 -3 -85 -7 -216 -10 -290 -3 -74 -7 -207 -10 -295 -5 -147 -27 -793 -40 -1150 -3 -82 -10 -285 -15 -450 -17 -496 -30 -874 -35 -985 -2 -58 -7 -211 -11 -340 -4 -129 -8 -238 -11 -242 -2 -5 34 -8 80 -8 l84 0 2 73 c0 39 6 198 11 352 17 497 20 577 25 740 3 88 7 212 10 275 3 63 12 318 20 565 14 436 20 614 30 875 3 69 7 195 10 280 3 85 7 218 10 295 3 77 7 212 10 300 3 88 7 216 10 285 3 69 7 204 10 300 3 96 8 231 10 300 7 156 33 935 40 1170 3 96 7 222 10 280 3 58 7 193 10 300 3 107 8 233 10 280 2 47 7 175 10 285 3 110 8 243 10 295 3 52 7 187 10 300 3 113 8 241 10 285 3 44 10 238 16 430 6 193 14 353 17 356 4 3 36 14 72 24 221 60 437 264 509 482 32 97 54 239 46 308 -17 158 -64 294 -139 399 -194 273 -517 393 -836 311z m341 -309 c141 -50 237 -142 294 -283 23 -57 27 -83 27 -164 0 -84 -4 -104 -30 -167 -56 -135 -119 -199 -258 -264 -52 -24 -83 -32 -153 -36 -106 -6 -176 12 -273 69 -84 49 -130 102 -182 209 -40 83 -41 87 -41 190 0 103 1 107 41 191 23 48 58 105 79 127 119 133 330 187 496 128z" id="path2"/> <path d="M28250 35545 c-229 -59 -403 -200 -504 -410 -59 -121 -81 -215 -81 -345 0 -246 112 -474 306 -620 131 -98 261 -146 426 -157 102 -7 97 -2 108 -88 4 -27 17 -120 30 -205 31 -202 58 -384 124 -835 47 -316 64 -429 91 -605 16 -102 36 -232 44 -290 9 -58 29 -197 46 -310 17 -113 37 -250 45 -305 9 -55 19 -129 25 -165 18 -123 80 -535 105 -695 13 -88 29 -191 34 -230 12 -91 74 -503 121 -815 5 -36 39 -261 75 -500 36 -239 74 -493 85 -565 11 -71 38 -254 60 -405 54 -365 89 -597 150 -1000 46 -302 69 -463 100 -675 18 -126 9 -118 92 -83 40 17 74 32 76 33 3 2 -24 185 -73 500 -7 50 -23 153 -34 230 -12 77 -32 212 -46 300 -13 88 -36 241 -50 340 -14 99 -32 221 -40 270 -14 93 -19 127 -61 405 -38 255 -69 463 -108 730 -20 135 -43 286 -51 335 -8 50 -21 140 -30 200 -9 61 -32 214 -51 340 -19 127 -48 320 -64 430 -16 110 -50 335 -75 500 -25 165 -52 345 -60 400 -8 55 -26 177 -40 270 -14 94 -32 215 -40 270 -8 55 -28 190 -45 300 -17 110 -35 229 -40 265 -14 96 -105 707 -129 865 -6 39 -20 131 -31 205 -96 628 -95 619 -50 620 8 0 44 14 79 30 187 89 350 267 410 447 32 97 54 239 46 308 -17 158 -64 294 -139 399 -194 273 -517 393 -836 311z m341 -309 c141 -50 237 -142 294 -283 23 -57 27 -83 27 -164 0 -84 -4 -104 -30 -167 -56 -135 -119 -199 -258 -264 -134 -63 -305 -47 -440 40 -76 49 -123 106 -171 207 -36 77 -38 84 -38 185 0 103 1 107 41 191 23 48 58 105 79 127 119 133 330 187 496 128z" id="path4"/> <path d="M25750 34885 c-229 -59 -403 -200 -504 -410 -59 -121 -81 -215 -81 -345 0 -246 112 -474 306 -620 151 -114 277 -155 477 -155 72 0 132 0 132 0 0 -1 30 -86 66 -190 36 -105 76 -221 88 -260 13 -38 70 -203 126 -365 56 -162 106 -306 110 -320 5 -14 45 -131 90 -260 45 -129 96 -280 115 -335 19 -55 50 -145 69 -200 36 -104 215 -626 341 -995 41 -118 111 -321 155 -450 45 -129 92 -266 105 -305 13 -38 65 -189 115 -335 112 -323 275 -798 420 -1220 59 -173 130 -380 158 -460 200 -578 266 -770 277 -805 7 -22 59 -173 115 -335 56 -162 108 -315 116 -340 8 -25 18 -52 21 -60 9 -24 160 -463 211 -612 26 -76 49 -138 52 -138 3 0 26 43 52 96 l47 95 -15 47 c-8 26 -19 56 -24 67 -5 11 -27 74 -49 140 -22 66 -69 206 -106 310 -36 105 -81 235 -100 290 -18 55 -70 206 -115 335 -45 129 -97 280 -115 335 -19 55 -70 206 -115 335 -45 129 -90 260 -100 290 -10 30 -55 161 -100 290 -45 129 -96 280 -115 335 -18 55 -55 161 -80 235 -26 74 -73 212 -105 305 -120 349 -259 753 -289 840 -18 50 -43 122 -56 160 -12 39 -73 214 -133 390 -98 283 -196 569 -377 1095 -29 85 -101 295 -160 465 -58 171 -115 335 -125 365 -10 30 -62 181 -115 335 -53 154 -123 359 -156 455 -33 96 -64 184 -69 195 -4 11 -11 29 -13 40 -3 11 -19 57 -35 103 l-31 82 52 26 c180 91 338 266 396 441 32 97 54 239 46 308 -17 158 -64 294 -139 399 -194 273 -517 393 -836 311z m341 -309 c141 -50 237 -142 294 -283 23 -57 27 -83 27 -164 0 -84 -4 -104 -30 -167 -56 -135 -119 -199 -258 -264 -52 -24 -83 -32 -153 -36 -106 -6 -176 12 -273 69 -84 49 -130 102 -182 209 -40 83 -41 87 -41 190 0 103 1 107 41 191 23 48 58 105 79 127 119 133 330 187 496 128z" id="path6"/> <path d="M40230 32895 c-229 -59 -403 -200 -504 -410 -59 -121 -81 -215 -81 -345 0 -167 53 -335 146 -457 26 -35 37 -58 32 -67 -4 -8 -120 -130 -258 -272 -454 -471 -518 -537 -740 -768 -121 -126 -233 -244 -250 -261 -16 -17 -80 -83 -140 -146 -61 -63 -218 -226 -350 -364 -132 -137 -287 -299 -345 -359 -58 -60 -116 -121 -130 -136 -14 -14 -126 -131 -250 -260 -124 -128 -236 -244 -249 -259 -13 -14 -83 -87 -155 -161 -72 -75 -183 -189 -246 -255 -246 -257 -801 -835 -926 -965 -51 -52 -111 -115 -134 -140 -36 -38 -154 -161 -530 -550 -25 -26 -83 -87 -130 -136 -47 -49 -196 -204 -330 -344 -135 -140 -260 -270 -279 -290 -18 -19 -85 -89 -149 -155 -64 -66 -168 -174 -231 -240 -64 -67 -172 -179 -241 -250 -89 -91 -118 -127 -100 -122 28 8 155 33 212 42 38 6 74 40 409 390 128 134 301 314 519 540 112 117 412 429 715 745 60 63 164 170 230 239 66 68 131 136 145 151 24 26 357 372 610 635 69 71 182 188 250 260 69 71 179 186 245 255 246 255 561 583 600 625 11 12 76 80 145 151 254 262 430 445 625 649 110 115 207 216 215 225 8 8 127 132 265 275 137 143 301 314 365 380 110 114 182 189 476 495 72 74 159 165 194 203 35 37 67 67 71 67 5 0 34 -16 64 -36 122 -77 291 -120 444 -111 217 12 391 93 538 251 111 119 168 237 199 418 18 103 14 164 -16 295 -46 196 -169 367 -345 478 -172 109 -400 142 -605 90z m341 -309 c141 -50 237 -142 294 -283 23 -57 27 -83 27 -164 0 -84 -4 -104 -30 -167 -56 -135 -119 -199 -258 -264 -53 -25 -83 -32 -154 -36 -109 -6 -195 18 -287 78 -78 52 -122 104 -170 205 -36 77 -38 84 -38 185 0 103 1 107 41 191 23 48 58 105 79 127 119 133 330 187 496 128z" id="path8"/> <path d="M35980 32635 c-229 -59 -403 -200 -504 -410 -59 -121 -81 -215 -81 -345 0 -125 21 -220 75 -335 43 -93 137 -214 208 -268 50 -37 55 -50 32 -82 -4 -5 -29 -50 -55 -100 -78 -147 -116 -218 -140 -260 -12 -22 -40 -71 -60 -110 -21 -38 -96 -178 -168 -310 -71 -132 -179 -332 -239 -445 -61 -113 -118 -218 -128 -235 -9 -16 -41 -75 -70 -130 -29 -55 -56 -104 -60 -110 -4 -5 -33 -59 -65 -120 -32 -60 -66 -123 -75 -140 -9 -16 -35 -64 -57 -105 -23 -41 -114 -210 -203 -375 -89 -165 -177 -327 -195 -360 -53 -99 -165 -305 -205 -380 -21 -38 -94 -173 -162 -300 -69 -126 -146 -270 -173 -320 -26 -49 -58 -108 -70 -130 -13 -22 -98 -179 -190 -350 -92 -170 -182 -337 -200 -370 -37 -68 -160 -297 -213 -395 -19 -36 -75 -139 -124 -229 l-90 -164 58 -53 c33 -29 61 -53 64 -54 3 0 16 21 29 48 14 26 44 81 66 122 23 41 63 116 90 165 26 50 58 108 70 130 27 48 83 152 138 255 22 41 81 152 132 245 51 94 220 406 375 695 155 289 286 530 290 535 4 6 33 60 65 120 32 61 95 178 140 260 45 83 100 184 122 225 79 146 111 206 140 260 137 250 236 434 325 600 58 107 163 303 235 435 71 132 149 276 173 320 23 44 56 104 71 133 66 120 88 161 134 247 26 50 58 108 70 130 12 22 38 69 57 105 58 107 120 222 150 275 15 28 46 84 68 126 l41 76 82 -25 c116 -36 304 -37 425 -4 145 39 262 111 369 226 111 119 168 237 199 418 31 181 -20 398 -130 552 -194 273 -517 393 -836 311z m341 -309 c141 -50 237 -142 294 -283 23 -57 27 -83 27 -164 0 -84 -4 -104 -30 -167 -56 -135 -119 -199 -258 -264 -52 -24 -83 -32 -153 -36 -106 -6 -176 12 -273 69 -84 49 -130 102 -182 209 -40 83 -41 87 -41 190 0 103 1 107 41 191 23 48 58 105 79 127 119 133 330 187 496 128z" id="path10"/> <path d="M19520 31925 c-229 -59 -403 -200 -504 -410 -59 -121 -81 -215 -81 -345 0 -246 112 -474 306 -620 149 -112 277 -154 469 -155 190 0 322 42 467 148 l62 46 38 -42 c116 -128 222 -245 252 -276 18 -20 74 -81 124 -136 50 -55 116 -127 148 -160 31 -33 78 -85 104 -115 27 -30 76 -84 110 -120 34 -36 86 -92 116 -125 30 -33 56 -62 59 -65 3 -3 46 -50 95 -105 49 -55 92 -102 95 -105 3 -3 62 -66 130 -140 68 -74 143 -155 166 -180 22 -25 146 -160 274 -300 128 -140 273 -298 322 -351 49 -53 98 -107 109 -120 11 -13 42 -46 68 -74 26 -27 195 -212 376 -410 181 -198 375 -409 431 -470 89 -97 1077 -1176 1318 -1440 50 -55 123 -134 161 -175 39 -41 113 -122 165 -180 52 -58 129 -141 170 -185 41 -44 137 -149 214 -233 76 -84 142 -152 146 -150 13 5 90 106 90 118 0 10 -138 165 -289 325 -36 38 -83 90 -105 115 -21 25 -62 70 -90 100 -51 54 -77 82 -261 284 -49 55 -99 108 -110 120 -17 18 -191 207 -449 490 -50 55 -102 111 -116 126 -14 15 -65 71 -115 125 -149 163 -249 272 -485 530 -96 104 -193 210 -215 235 -38 41 -115 125 -221 240 -23 25 -123 135 -224 245 -101 110 -204 223 -229 250 -26 28 -114 124 -196 215 -83 90 -181 198 -220 240 -71 77 -225 245 -325 354 -30 34 -85 92 -121 131 -36 38 -158 171 -270 295 -463 507 -541 593 -592 648 -30 31 -112 120 -182 197 -70 77 -155 169 -188 205 -128 139 -143 156 -155 172 -12 14 -8 27 27 85 49 83 76 163 97 285 31 181 -20 398 -130 552 -194 273 -517 393 -836 311z m341 -309 c274 -96 399 -391 276 -648 -48 -100 -115 -166 -221 -219 -75 -37 -94 -42 -173 -46 -108 -7 -178 11 -275 68 -84 49 -130 102 -182 209 -40 83 -41 87 -41 190 0 103 1 107 41 191 23 48 58 105 79 127 119 133 330 187 496 128z" id="path12"/> <path d="M32770 31925 c-229 -59 -403 -200 -504 -410 -59 -121 -81 -215 -81 -345 0 -183 59 -350 172 -490 83 -102 217 -202 322 -238 17 -6 31 -17 31 -24 0 -7 -51 -225 -114 -483 -63 -259 -124 -510 -136 -560 -52 -217 -96 -397 -155 -640 -35 -143 -82 -339 -105 -435 -45 -185 -131 -544 -180 -745 -16 -66 -47 -195 -70 -287 -22 -93 -58 -243 -81 -335 -22 -93 -58 -242 -80 -333 -22 -91 -49 -200 -60 -243 -11 -44 -19 -80 -17 -81 5 -3 144 -46 150 -46 3 0 8 19 12 43 4 23 11 56 16 72 6 17 37 143 70 280 33 138 89 372 125 520 65 264 83 342 144 595 16 69 53 220 81 335 28 116 65 266 81 335 17 69 54 224 84 345 29 121 63 261 75 310 12 50 43 180 70 290 27 110 65 268 85 350 20 83 54 224 76 315 22 91 49 203 60 250 11 47 22 92 25 101 4 14 25 17 117 22 231 10 402 88 554 251 111 119 168 237 199 418 18 103 14 164 -16 295 -46 196 -169 367 -345 478 -172 109 -400 142 -605 90z m341 -309 c141 -50 237 -142 294 -283 23 -57 27 -83 27 -164 0 -84 -4 -104 -30 -167 -56 -135 -119 -199 -258 -264 -129 -60 -290 -48 -426 32 -84 50 -130 103 -182 210 -40 83 -41 87 -41 190 0 103 1 107 41 191 23 48 58 105 79 127 119 133 330 187 496 128z" id="path14"/> <path d="M15040 30605 c-229 -59 -403 -200 -504 -410 -59 -121 -81 -215 -81 -345 0 -246 112 -474 306 -620 149 -112 277 -154 469 -155 244 0 419 78 588 261 l70 76 28 -16 c16 -9 36 -20 44 -25 28 -17 283 -167 420 -246 74 -43 182 -106 240 -141 132 -78 496 -290 615 -359 50 -28 185 -107 300 -175 116 -68 264 -155 330 -193 66 -39 174 -102 240 -140 66 -39 158 -93 205 -119 47 -27 94 -55 105 -61 83 -51 173 -104 395 -232 140 -81 273 -159 295 -172 22 -14 99 -59 170 -100 72 -42 173 -101 225 -131 52 -30 127 -74 165 -97 39 -23 158 -93 265 -155 167 -97 302 -175 360 -210 8 -5 110 -64 225 -131 326 -190 448 -261 475 -278 14 -9 34 -21 45 -27 11 -6 101 -58 200 -116 99 -58 410 -239 690 -403 281 -163 564 -329 630 -368 66 -39 167 -98 225 -132 58 -34 148 -87 200 -117 52 -30 172 -100 265 -155 94 -55 258 -151 365 -213 107 -62 260 -152 340 -198 178 -105 290 -170 338 -198 21 -11 76 -44 125 -72 519 -307 558 -328 627 -342 52 -10 149 -44 246 -86 7 -3 6 15 -4 54 -11 45 -20 62 -41 74 -32 18 -421 246 -741 433 -129 76 -248 145 -265 155 -16 9 -77 45 -133 79 -57 33 -106 61 -108 61 -2 0 -32 17 -67 39 -62 38 -937 550 -1127 659 -52 30 -183 106 -290 169 -273 161 -370 218 -410 240 -19 11 -141 82 -270 158 -129 75 -275 161 -325 190 -49 29 -169 99 -265 155 -96 56 -227 133 -290 170 -154 89 -455 266 -615 360 -71 42 -150 88 -175 102 -25 14 -112 65 -195 113 -82 49 -172 102 -200 117 -27 16 -57 33 -65 38 -8 5 -105 62 -215 126 -217 126 -399 233 -510 299 -38 23 -77 45 -85 48 -8 4 -28 15 -45 26 -16 10 -237 139 -490 286 -253 147 -476 278 -495 290 -19 13 -64 39 -100 59 -36 20 -83 48 -105 61 -22 13 -57 34 -77 45 -21 11 -78 45 -128 75 -50 30 -92 55 -94 55 -3 0 -55 31 -118 68 -62 38 -120 71 -128 75 -8 4 -28 15 -45 26 -37 23 -827 485 -899 526 -188 107 -206 120 -201 135 26 65 48 196 48 280 0 251 -113 476 -318 631 -177 134 -430 181 -655 124z m341 -309 c90 -31 173 -88 219 -150 116 -153 136 -334 56 -500 -50 -103 -114 -166 -221 -218 -74 -35 -96 -41 -173 -46 -107 -6 -177 12 -274 69 -84 49 -130 102 -182 209 -40 83 -41 87 -41 190 0 101 1 108 38 185 48 101 95 158 171 207 123 80 277 100 407 54z" id="path16"/> <path d="M24600 30605 c-229 -59 -403 -200 -504 -410 -59 -121 -81 -215 -81 -345 0 -246 112 -474 306 -620 134 -100 263 -147 434 -157 95 -5 121 -2 280 34 23 5 25 1 170 -257 23 -41 104 -185 180 -320 76 -135 155 -274 175 -310 21 -36 88 -155 150 -265 62 -110 124 -220 138 -244 14 -25 38 -67 53 -93 16 -27 29 -51 29 -54 0 -2 11 -21 23 -42 13 -20 58 -98 99 -172 42 -74 84 -151 95 -170 192 -340 251 -444 276 -490 17 -30 41 -72 54 -92 13 -21 23 -39 23 -41 0 -2 22 -42 48 -88 27 -46 60 -104 74 -129 14 -25 65 -115 113 -200 48 -85 108 -192 133 -238 30 -54 51 -81 59 -78 8 3 43 11 78 18 36 6 65 16 65 22 0 6 -16 37 -35 69 -19 32 -35 60 -35 62 0 2 -20 38 -45 79 -25 42 -45 79 -45 82 0 3 -8 18 -18 32 -11 15 -36 59 -57 97 -41 75 -184 329 -245 435 -21 36 -60 106 -87 155 -28 50 -61 108 -73 130 -44 77 -163 290 -182 325 -11 19 -27 49 -37 65 -17 27 -431 760 -489 865 -37 66 -186 329 -210 370 -11 19 -34 60 -50 90 -17 30 -80 143 -141 250 -61 107 -111 200 -111 207 0 6 22 27 49 47 116 85 228 235 270 363 32 97 54 239 46 308 -17 158 -64 294 -139 399 -194 273 -517 393 -836 311z m341 -309 c141 -50 237 -142 294 -283 23 -57 27 -83 27 -164 0 -84 -4 -104 -30 -167 -56 -135 -119 -199 -258 -264 -52 -24 -83 -32 -153 -36 -106 -6 -176 12 -273 69 -84 49 -130 102 -182 209 -40 83 -41 87 -41 190 0 103 1 107 41 191 23 48 58 105 79 127 119 133 330 187 496 128z" id="path18"/> <path d="M40230 28495 c-229 -59 -403 -200 -504 -410 -59 -121 -81 -215 -81 -345 0 -131 22 -223 82 -349 l45 -95 -25 -20 c-20 -17 -392 -284 -572 -411 -23 -16 -141 -101 -261 -187 -120 -87 -334 -240 -474 -341 -140 -100 -298 -214 -350 -251 -52 -38 -115 -84 -140 -101 -41 -29 -311 -223 -1025 -735 -148 -106 -323 -232 -389 -279 -65 -47 -135 -98 -155 -112 -80 -57 -546 -391 -550 -395 -2 -2 18 -29 45 -61 26 -32 49 -60 50 -61 2 -3 286 199 1099 783 160 114 313 224 340 243 28 20 73 52 100 72 43 31 411 296 980 704 77 55 192 138 255 183 63 46 147 106 185 133 125 89 218 155 335 240 63 46 135 98 160 115 25 18 144 103 265 190 121 87 224 159 230 161 5 2 42 -20 82 -50 39 -29 96 -65 126 -80 205 -97 487 -97 680 1 180 90 338 266 396 440 32 97 54 239 46 308 -18 170 -68 306 -157 423 -193 255 -509 366 -818 287z m341 -309 c141 -50 237 -142 294 -283 23 -57 27 -83 27 -164 0 -84 -4 -104 -30 -167 -56 -135 -119 -199 -258 -264 -52 -24 -83 -32 -153 -36 -106 -6 -176 12 -273 69 -84 49 -130 102 -182 209 -40 83 -41 87 -41 190 0 103 1 107 41 191 23 48 58 105 79 127 119 133 330 187 496 128z" id="path20"/> <path d="M45430 28115 c-116 -30 -193 -67 -285 -138 -222 -170 -346 -488 -291 -747 9 -41 16 -79 16 -83 0 -9 -54 -35 -660 -320 -228 -107 -460 -216 -515 -242 -55 -26 -127 -60 -160 -75 -33 -15 -109 -51 -170 -80 -60 -29 -137 -65 -170 -80 -101 -47 -207 -97 -520 -245 -55 -26 -127 -60 -160 -75 -33 -15 -105 -49 -160 -75 -55 -26 -127 -60 -160 -75 -33 -15 -118 -56 -190 -90 -71 -34 -152 -72 -180 -85 -27 -12 -99 -46 -160 -75 -60 -29 -175 -83 -255 -120 -80 -37 -190 -89 -245 -115 -55 -26 -131 -62 -170 -80 -81 -37 -704 -331 -845 -398 -52 -24 -284 -134 -515 -242 -231 -109 -465 -219 -520 -245 -55 -26 -127 -60 -160 -75 -33 -15 -120 -57 -194 -92 -73 -34 -135 -63 -136 -63 -2 0 -78 -36 -170 -80 -92 -44 -168 -80 -170 -80 -1 0 -58 -26 -126 -59 -117 -55 -719 -339 -894 -421 -44 -21 -123 -58 -175 -83 -52 -25 -169 -80 -260 -122 -91 -43 -208 -98 -260 -122 -119 -56 -221 -104 -327 -153 -46 -22 -86 -48 -93 -60 -6 -12 -10 -23 -8 -25 2 -1 57 -8 123 -15 l120 -13 158 77 c87 42 160 76 162 76 1 0 63 29 136 64 74 34 168 79 209 98 41 20 120 57 175 83 55 26 161 75 235 110 139 65 243 114 435 205 61 29 135 64 165 78 30 13 138 64 240 112 217 103 812 382 920 433 41 19 120 56 175 82 55 26 127 60 160 75 33 15 112 52 175 83 63 30 149 70 190 90 41 19 188 87 325 152 138 65 287 135 333 156 107 51 234 111 347 164 50 23 203 95 340 160 138 65 291 137 340 160 50 24 241 113 425 200 184 87 373 175 420 197 47 22 121 57 165 78 44 21 125 59 180 85 55 26 325 153 600 282 275 130 538 253 585 276 47 22 128 60 180 84 52 25 122 58 155 73 33 15 110 51 170 80 61 29 137 65 170 80 33 15 108 51 167 78 l107 51 47 -66 c165 -231 414 -355 683 -340 217 12 391 93 538 251 111 119 168 237 199 418 31 181 -20 398 -130 552 -194 273 -517 393 -836 311z m341 -309 c141 -50 237 -142 294 -283 23 -57 27 -83 27 -164 0 -84 -4 -104 -30 -167 -56 -135 -119 -199 -258 -264 -52 -24 -83 -32 -153 -36 -106 -6 -176 12 -273 69 -84 49 -130 102 -182 209 -40 83 -41 87 -41 190 0 103 1 107 41 191 23 48 58 105 79 127 119 133 330 187 496 128z" id="path22"/> <path d="M18870 25315 c-229 -59 -403 -200 -504 -410 -59 -121 -81 -215 -81 -345 0 -246 112 -474 306 -620 149 -112 277 -154 469 -155 187 0 312 38 455 140 129 92 228 220 286 372 9 25 -105 61 1324 -422 303 -102 656 -222 785 -265 644 -217 1274 -431 1278 -435 2 -2 29 26 58 62 30 37 51 69 47 73 -4 4 -91 34 -193 68 -102 34 -392 132 -645 217 -253 86 -473 160 -490 165 -16 5 -210 70 -430 145 -220 74 -593 201 -830 281 -236 79 -526 177 -644 217 l-214 72 -2 90 c-6 254 -118 473 -320 626 -177 134 -430 181 -655 124z m341 -309 c276 -97 399 -392 274 -652 -48 -99 -110 -161 -217 -214 -77 -38 -96 -43 -175 -47 -108 -7 -178 11 -275 68 -84 49 -130 102 -182 209 -40 83 -41 87 -41 190 0 103 1 107 41 191 23 48 58 105 79 127 119 133 330 187 496 128z" id="path24"/> <path d="M45110 24945 c-116 -30 -193 -67 -285 -138 -179 -137 -287 -348 -302 -589 l-6 -97 -51 -15 c-28 -8 -141 -38 -251 -66 -110 -29 -290 -76 -400 -105 -110 -29 -324 -85 -475 -125 -151 -40 -376 -99 -500 -132 -124 -32 -295 -77 -380 -99 -85 -23 -222 -59 -305 -81 -82 -22 -224 -59 -315 -83 -91 -23 -228 -59 -305 -80 -201 -53 -312 -82 -465 -121 -74 -19 -216 -57 -315 -83 -99 -27 -279 -74 -400 -106 -121 -31 -301 -78 -400 -105 -99 -26 -279 -73 -400 -105 -121 -32 -310 -81 -420 -110 -394 -104 -746 -197 -1105 -291 -523 -136 -520 -136 -520 -143 0 -3 20 -36 43 -72 l42 -66 195 52 c107 29 303 81 435 115 132 34 312 82 400 105 88 24 282 75 430 114 149 39 434 114 635 167 201 52 417 109 480 126 63 16 327 85 585 153 259 68 540 142 625 164 85 23 274 72 420 111 146 38 362 95 480 126 298 79 449 118 560 147 52 14 174 46 270 71 96 25 234 61 305 80 195 52 299 79 535 141 118 31 294 77 390 102 96 25 184 48 195 50 17 3 25 -8 48 -67 120 -299 432 -495 756 -477 217 12 391 93 538 251 111 119 168 237 199 418 18 103 14 164 -16 295 -46 196 -169 367 -345 478 -172 109 -400 142 -605 90z m341 -309 c90 -31 173 -88 219 -150 116 -153 136 -334 56 -500 -50 -103 -114 -166 -221 -218 -74 -35 -96 -41 -174 -46 -109 -6 -196 17 -287 76 -76 49 -123 106 -171 207 -36 77 -38 84 -38 185 0 103 1 107 41 191 23 48 58 105 79 127 119 133 330 187 496 128z" id="path26"/> <path id="path28" transform="matrix(7.4999999,0,0,-7.4999999,0,40000)" style="stroke-width:0.13333334" d="m 4062.7969,2052.2168 c -14.4282,0.042 -26.7469,0.2668 -30.7969,0.7168 -9.3333,0.9333 -37.3336,5.8672 -44.9336,7.8672 -4.2667,1.2 -9.4657,2.6659 -11.7324,3.1992 -7.2,1.7333 -25.0672,8.2669 -35.8672,12.9336 -38.8,17.0667 -72.2677,44.6673 -93.7344,77.334 -6.1333,9.4666 -17.0659,29.9989 -21.1992,40.2656 -1.3333,3.0667 -1.4664,2.9329 -3.0664,-2.4004 -3.7333,-12.6667 -15.0665,-28.9337 -26.5332,-38.4004 -28.8,-23.3333 -71.6009,-35.3325 -126.2676,-35.1992 -65.3333,0 -133.5987,16.5327 -193.332,46.666 -65.2,33.0667 -107.6003,76.9335 -122.9336,127.4668 -3.3333,11.2 -3.5996,13.6013 -3.5996,36.668 0,20.6667 0.5321,26.2656 2.7988,34.2656 1.4667,5.3333 2.5332,9.7344 2.5332,9.7344 -0.1333,0 -5.1987,-2.1347 -11.332,-4.668 -18.2667,-7.7333 -27.2015,-9.332 -52.1348,-9.332 -35.3333,0 -57.6001,5.6 -95.4668,24 -52.5333,25.6 -98.3996,65.8668 -131.5996,115.4668 -29.8667,44.8 -44,87.7325 -44,133.1992 0,21.0667 2.6664,37.5993 9.0664,56.666 7.6,23.0667 18.5343,43.2008 34.2676,62.8008 4.4,5.6 7.7335,10.2671 7.4668,10.4004 -0.073,0.073 -0.519,0.3805 -1.1641,0.8144 3.8619,3.7159 7.5696,7.5956 11.5664,11.168 1.2214,0.9377 2.528,1.7594 3.8067,2.6152 9.4236,6.3081 15.9364,13.2089 19.9941,20.0664 143.989,-0.292 503.643,-0.5312 923.7969,-0.5312 h 992.2656 l 6.8926,1.2305 c -0.28,-7.0079 0.833,-15.0532 3.7715,-24.0137 0.2423,-0.739 0.4805,-1.4796 0.7226,-2.2188 -0.034,-1.0249 -0.053,-2.1862 -0.053,-3.664 0,-9.8667 -4.4001,-46.0013 -7.4668,-60.668 -9.3333,-45.6 -26.7995,-84.1324 -52.1328,-115.7324 -38.1333,-47.0667 -90.2668,-74.1344 -157.4668,-81.7344 -12.8,-1.4666 -14.9328,-1.9991 -14.1328,-3.7324 0.5333,-1.2 2.9334,-7.9997 5.4668,-15.0664 19.3333,-55.2 5.7334,-114.2664 -38.5332,-167.0664 -44.4,-53.2 -116.535,-94.8012 -189.0684,-109.2012 -27.7333,-5.4667 -62.7993,-6.9329 -84.666,-3.5996 -28.5333,4.4 -58.1332,16 -76.5332,30 l -8.1328,6.1328 v -9.5996 c 0,-52.6667 -56.4013,-110.2668 -144.668,-147.4668 -43.2,-18.2667 -93.866,-31.3323 -140.666,-36.2656 -7.25,-0.75 -37.1562,-1.1875 -61.2031,-1.1172 z m -1137.6524,754.4238 c -3.9599,0.8846 -7.4612,1.6595 -9.8105,2.1602 -8,1.7333 -18.268,3.9997 -22.668,5.0664 -4.4,1.0667 -17.8667,4.1321 -30,6.7988 -12.1333,2.8 -28.5327,6.5343 -36.666,8.2676 -8,1.8667 -20.6667,4.6671 -28,6.4004 -7.3333,1.6 -20.534,4.6665 -29.334,6.5332 -8.8,2 -20.9321,4.7995 -26.7988,6.1328 -6,1.4667 -15.0667,3.4665 -20,4.5332 -5.0667,1.0667 -15.4679,3.4673 -23.2012,5.334 -14.6667,3.4667 -39.7327,9.0663 -68.666,15.5996 -9.4667,2 -25.4673,5.6005 -35.334,7.8672 -44.2667,10.1333 -74.2667,16.9333 -88,20 -6.2667,1.3333 -27.4653,6.1327 -47.332,10.666 -19.7333,4.4 -46.8,10.5329 -60,13.5996 -13.2,2.9333 -30.0007,6.8004 -37.334,8.4004 -7.3333,1.7333 -29.4673,6.6659 -49.334,11.1992 -19.7333,4.4 -47.9999,10.8015 -62.5332,14.1348 -14.6667,3.3333 -27.466,6 -28.666,6 -1.4667,0 -3.2007,-2.9341 -5.334,-8.8008 -5.7333,-15.8667 -19.7335,-34.1333 -35.4668,-46 -23.6,-17.8667 -56.7988,-24.1332 -86.7988,-16.5332 -15.8667,4 -26.1332,8.9337 -38.5332,18.4004 -17.7333,13.4667 -32.0001,35.7323 -37.4668,58.2656 -3.3333,13.4667 -3.3333,34.6667 0,48 7.4667,29.8667 29.3319,57.3344 55.8652,69.7344 27.3334,13.0667 64.9347,13.0667 90.668,0 24,-12 45.0655,-35.468 52.7988,-58.668 3.2,-9.7333 6.8008,-29.0659 6.8008,-37.1992 0,-5.3333 0.2671,-5.7332 4.4004,-6.5332 6.2667,-1.3333 49.9989,-11.1993 56.2656,-12.666 2.9333,-0.6667 23.068,-5.2014 44.668,-10.1348 21.6,-4.8 44.1333,-9.8659 50,-11.1992 5.8667,-1.4667 21.732,-5.0661 35.332,-8.1328 13.6,-2.9333 28.268,-6.2673 32.668,-7.334 4.4,-0.9333 14.666,-3.1997 22.666,-5.0664 8.1333,-1.7333 26.6673,-5.8673 41.334,-9.334 14.6667,-3.3333 29.3327,-6.6654 32.666,-7.332 7.8667,-1.7334 24.666,-5.6015 44.666,-10.1348 8.8,-2 23.8673,-5.3329 33.334,-7.5996 9.6,-2.1333 22.1333,-4.9337 28,-6.4004 5.8667,-1.3333 13.734,-3.0652 17.334,-3.8652 3.7333,-0.8 12.9327,-2.8013 20.666,-4.668 7.7333,-1.7333 30.2667,-6.7987 50,-11.332 19.8667,-4.4 39.866,-9.0681 44.666,-10.1348 20,-4.5333 87.334,-19.8667 97.334,-22 3.3333,-0.8 12.2667,-2.7999 20,-4.5332 7.2433,-1.6235 19.0444,-4.357 27.4434,-6.2383 -0.4954,-4.349 -0.9945,-8.8374 -1.5957,-13.6562 -0.3248,-2.6028 -0.5494,-5.1284 -0.7032,-7.5977 z m 2291.7246,1.9922 c 0.014,0.1441 0.03,0.2874 0.043,0.4317 -0.4762,-0.025 -0.9117,-0.035 -1.3828,-0.059 -2.4129,7.776 -7.1544,14.3179 -14.3984,18.4375 4.9813,0.854 10.2386,1.7699 14.8691,2.5566 27.4667,4.8 52.6667,9.3333 56,10 3.3333,0.6667 25.4673,4.6674 49.334,8.8008 23.8667,4 66.7987,11.5999 95.332,16.5332 28.6667,5.0667 64.6667,11.3333 80,14 31.2,5.3333 127.4667,22.2653 144,25.332 11.6,2.1333 98.534,17.3339 171.334,29.8672 25.3333,4.4 63.0672,11.0675 83.8672,14.8008 20.8,3.6 38.2655,6.666 38.7988,6.666 0.5333,0 1.3344,4.9336 1.7344,10.9336 1.7333,22.5333 9.5997,42.6668 23.0664,59.4668 8.5333,10.6667 24.1329,23.3327 35.5996,28.666 27.3333,13.0667 64.9346,13.0667 90.668,0 24,-12 45.0655,-35.466 52.7988,-58.666 4.2667,-12.9333 7.1995,-31.8664 6.1328,-41.0664 -2.4,-22.6667 -9.065,-40.8004 -20.9316,-56.4004 -25.6,-34 -67.3352,-48.6676 -108.5352,-38.2676 -15.8666,4 -26.1332,8.9337 -38.5332,18.4004 -15.4667,11.8667 -28.7993,30.5332 -34.666,48.5332 -1.3333,3.8667 -3.0672,7.0664 -3.8672,7.0664 -0.9333,0 -8.2656,-1.1993 -16.2656,-2.666 -8,-1.3333 -34.0005,-5.8667 -57.8672,-10 -23.8667,-4 -48.1333,-8.2673 -54,-9.334 -10.8,-2 -64.0007,-11.3334 -99.334,-17.4668 -10.6667,-1.8666 -42.6653,-7.4665 -71.332,-12.5332 -56,-9.8667 -197.2007,-34.5325 -235.334,-41.1992 -12.8,-2.2667 -41.866,-7.334 -64.666,-11.334 -22.6667,-4.1333 -55.0667,-9.7327 -72,-12.666 -13.1883,-2.3027 -33.0879,-5.7725 -50.4649,-8.834 z m 823.5723,90.0703 c 6.7678,-0.07 13.4664,0.9516 19.6914,3.1641 12,4.1333 23.0679,11.7333 29.2012,20 15.4667,20.4 18.1334,44.5327 7.4668,66.666 -6.6667,13.7333 -15.2001,22.1331 -29.4668,29.0664 -9.8667,4.6667 -12.8012,5.4662 -23.2012,6.1328 -14.5333,0.8 -26.1323,-2.2661 -38.2656,-10.1328 -10.1333,-6.5333 -16.4008,-14.1329 -22.8008,-27.5996 -4.8,-10.2667 -5.0664,-11.1993 -5.0664,-24.666 0,-13.7333 0.1335,-14.2668 5.4668,-25.4668 3.0667,-6.4 7.7332,-14.0003 10.5332,-16.9336 11.4042,-12.7458 29.1458,-20.051 46.4414,-20.2305 z m -3921.334,33.334 c 6.7679,-0.07 13.4684,0.9496 19.6934,3.1621 18.8,6.6667 31.5997,18.9349 39.0664,37.6016 3.0667,7.6 3.7324,11.0666 3.7324,22 0,11.3333 -0.5333,13.9989 -4,22.2656 -7.4667,18 -15.867,26.5345 -34.4004,35.2012 -6.9333,3.2 -11.0651,4.2655 -20.3984,4.7988 -14.1334,0.8 -23.4671,-1.5992 -36.4004,-9.1992 -11.2,-6.5333 -17.3343,-13.6005 -24.2676,-27.8672 -5.3333,-11.0667 -5.4668,-11.6007 -5.4668,-25.334 0,-13.7333 0.1335,-14.2668 5.4668,-25.4668 3.0667,-6.4 7.7332,-13.9983 10.5332,-16.9316 11.4042,-12.7459 29.1458,-20.051 46.4414,-20.2305 z"/> <path d="M14390 23675 c-229 -59 -403 -200 -504 -410 -59 -121 -81 -215 -81 -345 0 -181 58 -348 170 -488 65 -80 182 -175 268 -215 205 -98 487 -98 680 0 183 91 340 267 398 445 l22 67 46 -5 c25 -3 89 -12 141 -20 151 -22 984 -142 1220 -175 118 -16 256 -36 305 -44 50 -7 158 -23 240 -35 83 -11 177 -25 210 -30 50 -8 169 -25 450 -64 146 -21 290 -42 520 -76 149 -21 369 -53 490 -70 121 -17 294 -42 385 -55 91 -13 262 -38 380 -55 118 -17 256 -37 305 -45 50 -8 176 -26 280 -40 268 -37 545 -76 945 -135 190 -28 379 -55 420 -60 41 -6 118 -17 170 -25 52 -8 158 -24 235 -34 189 -26 704 -100 736 -105 l25 -5 -20 82 c-11 45 -21 83 -21 84 -1 2 -581 87 -705 103 -41 6 -118 16 -170 24 -52 8 -147 22 -210 31 -63 9 -171 25 -240 36 -69 10 -143 21 -165 23 -22 3 -166 23 -320 46 -154 22 -563 81 -910 131 -346 49 -655 93 -685 99 -30 5 -80 12 -110 15 -30 3 -80 10 -110 15 -58 10 -763 112 -1250 180 -157 23 -361 52 -455 66 -93 13 -215 31 -270 39 -55 8 -174 26 -265 39 -91 13 -219 32 -285 41 -228 31 -400 56 -455 65 -30 6 -122 19 -205 30 -148 20 -427 60 -556 81 l-67 10 -6 69 c-21 210 -95 377 -227 509 -198 198 -479 275 -749 206z m341 -309 c275 -97 399 -392 274 -651 -48 -100 -110 -162 -217 -215 -77 -38 -96 -43 -175 -47 -108 -7 -178 11 -275 68 -84 49 -130 102 -182 209 -40 83 -41 87 -41 190 0 103 1 107 41 191 23 48 58 105 79 127 119 133 330 187 496 128z" id="path30"/> <path d="M42950 21995 c-116 -30 -193 -67 -285 -138 -161 -123 -253 -286 -300 -534 -7 -37 -14 -39 -210 -48 -66 -3 -284 -14 -485 -25 -528 -29 -1277 -68 -1410 -75 -63 -3 -140 -8 -170 -10 -30 -2 -109 -7 -175 -10 -66 -3 -194 -10 -285 -15 -91 -5 -300 -16 -465 -25 -165 -8 -327 -17 -360 -19 -33 -3 -255 -15 -492 -28 l-433 -22 0 -78 0 -78 43 0 c41 0 702 34 862 44 44 3 339 19 655 36 316 16 611 32 655 35 44 3 211 12 370 20 160 9 580 31 935 50 355 19 692 37 750 40 58 3 130 8 161 10 l57 5 17 -72 c52 -219 220 -428 418 -521 205 -98 487 -98 680 0 180 90 338 266 396 440 32 97 54 239 46 308 -17 158 -64 294 -139 399 -194 273 -517 393 -836 311z m341 -309 c275 -97 399 -391 275 -650 -49 -102 -110 -162 -218 -216 -77 -38 -96 -43 -175 -47 -108 -7 -178 11 -275 68 -84 49 -130 102 -182 209 -40 83 -41 87 -41 190 0 103 1 107 41 191 23 48 58 105 79 127 119 133 330 187 496 128z" id="path32"/> <path d="M11840 20725 c-229 -59 -403 -200 -504 -410 -59 -121 -81 -215 -81 -345 0 -181 58 -348 170 -488 65 -80 182 -175 268 -215 205 -98 487 -98 680 0 180 90 338 266 396 440 21 62 51 216 51 259 0 23 3 24 73 25 39 0 92 2 117 4 25 2 115 6 200 9 85 3 270 10 410 16 461 18 703 27 875 35 55 2 168 7 250 10 83 3 193 7 245 10 52 3 217 10 365 15 149 6 324 12 390 15 66 2 190 7 275 10 85 3 306 12 490 20 369 16 478 20 870 35 284 11 680 27 875 35 244 10 501 21 750 30 77 3 192 7 255 10 63 3 176 7 250 10 176 7 356 14 505 20 66 3 235 10 375 15 140 5 309 12 375 15 66 3 244 9 395 15 151 5 311 12 355 15 44 2 154 7 245 10 91 3 203 7 250 10 47 2 166 7 265 10 263 8 335 14 335 31 0 7 11 39 25 70 14 31 25 61 25 66 0 5 -56 7 -137 3 -76 -3 -190 -7 -253 -10 -63 -3 -178 -7 -255 -10 -132 -5 -202 -8 -485 -20 -63 -3 -182 -7 -265 -10 -82 -3 -197 -7 -255 -10 -58 -2 -170 -7 -250 -10 -150 -6 -283 -11 -480 -20 -136 -6 -331 -13 -525 -20 -138 -5 -262 -10 -500 -20 -66 -3 -239 -9 -385 -15 -146 -6 -308 -12 -360 -15 -52 -2 -165 -7 -250 -10 -188 -7 -614 -23 -765 -30 -318 -14 -442 -19 -1005 -40 -165 -6 -363 -14 -490 -20 -52 -2 -167 -7 -255 -10 -88 -3 -205 -8 -260 -10 -55 -3 -275 -12 -490 -20 -391 -15 -692 -27 -1140 -45 -132 -5 -307 -12 -390 -15 -82 -3 -179 -7 -215 -10 -36 -3 -153 -8 -261 -11 l-196 -6 -12 46 c-36 146 -145 300 -286 407 -177 134 -430 181 -655 124z m341 -309 c141 -50 237 -142 293 -282 23 -57 28 -83 28 -165 0 -85 -4 -105 -30 -167 -56 -135 -119 -199 -258 -264 -52 -24 -83 -32 -153 -36 -106 -6 -176 12 -273 69 -84 49 -130 102 -182 209 -40 83 -41 87 -41 190 0 103 1 107 41 191 23 48 58 105 79 127 119 133 330 187 496 128z" id="path34"/> <path d="M36585 18133 c-3 -38 -7 -75 -8 -83 -1 -8 11 -22 28 -31 16 -9 156 -80 310 -159 154 -78 343 -175 420 -215 189 -98 465 -239 730 -375 279 -143 526 -270 730 -375 88 -45 259 -133 380 -195 338 -173 573 -294 760 -390 94 -48 269 -138 390 -200 239 -122 480 -246 755 -388 96 -49 353 -181 570 -292 217 -111 472 -242 565 -290 94 -48 283 -145 420 -215 138 -70 318 -162 400 -205 83 -42 233 -120 335 -172 102 -53 259 -134 350 -180 91 -47 296 -152 455 -233 160 -81 318 -163 352 -181 l61 -34 -18 -53 c-72 -205 -61 -414 33 -610 68 -143 218 -293 360 -360 205 -98 487 -98 680 0 180 90 338 266 396 440 32 97 54 239 46 308 -17 158 -64 294 -139 399 -153 214 -385 336 -641 336 -98 0 -242 -30 -329 -68 -93 -42 -241 -159 -289 -230 l-15 -24 -199 102 c-109 57 -280 145 -380 196 -324 166 -554 285 -708 364 -82 43 -258 133 -390 200 -259 132 -516 264 -770 395 -88 45 -259 133 -380 195 -218 112 -409 210 -765 392 -102 53 -264 136 -360 185 -96 50 -278 143 -405 208 -126 65 -297 152 -380 195 -82 42 -249 128 -370 190 -121 62 -296 152 -390 200 -93 48 -260 134 -370 190 -110 56 -281 144 -380 195 -431 221 -760 390 -1135 582 -107 55 -306 157 -441 227 -136 69 -249 126 -252 126 -3 0 -8 -30 -12 -67z m8866 -4087 c141 -50 237 -142 294 -283 23 -57 27 -83 27 -164 0 -84 -4 -104 -30 -167 -56 -135 -119 -199 -258 -264 -52 -24 -83 -32 -153 -36 -106 -6 -176 12 -273 69 -84 49 -130 102 -182 209 -40 83 -41 87 -41 190 0 101 1 108 38 185 48 101 95 158 171 207 123 80 277 100 407 54z" id="path36"/> <path d="M23840 17859 c-58 -40 -123 -84 -145 -99 -61 -42 -1114 -744 -1133 -755 -9 -6 -388 -258 -841 -560 -453 -303 -928 -620 -1056 -705 -128 -85 -324 -216 -436 -290 -112 -74 -208 -139 -214 -143 -5 -4 -32 -23 -60 -41 -27 -18 -84 -55 -125 -83 -78 -53 -722 -481 -965 -642 -77 -51 -153 -103 -170 -114 -16 -12 -52 -36 -80 -54 -27 -18 -55 -36 -60 -40 -8 -6 -1162 -775 -1620 -1080 -49 -33 -119 -80 -155 -104 -36 -24 -73 -48 -82 -54 -9 -5 -55 -36 -101 -67 -46 -32 -90 -58 -97 -58 -7 0 -31 19 -54 41 -194 196 -473 272 -742 204 -119 -30 -196 -67 -289 -138 -133 -101 -240 -268 -281 -437 -25 -101 -25 -260 0 -360 56 -224 220 -430 419 -523 205 -98 487 -98 680 0 180 90 338 266 396 440 32 97 54 239 46 308 -8 83 -39 210 -65 269 -24 57 -24 58 58 109 28 18 124 81 214 142 90 60 171 114 180 120 9 5 144 95 300 200 156 104 291 194 300 200 26 16 142 93 153 102 12 10 1563 1044 1587 1058 106 63 4735 3162 4730 3166 -6 5 -175 59 -183 59 -2 0 -51 -32 -109 -71z m-7799 -4953 c141 -50 237 -142 294 -283 23 -57 27 -83 27 -164 0 -84 -4 -104 -30 -167 -56 -135 -119 -199 -258 -264 -136 -63 -309 -47 -443 43 -77 51 -120 104 -168 204 -36 77 -38 84 -38 185 0 103 1 107 41 191 23 48 58 105 79 127 119 133 330 187 496 128z" id="path38"/> <path d="M32693 16840 l-42 -85 141 -230 c78 -126 265 -432 416 -680 151 -247 316 -517 366 -600 51 -82 212 -346 358 -585 146 -239 337 -552 425 -695 142 -232 496 -813 548 -899 11 -18 117 -192 237 -387 352 -576 527 -863 885 -1449 186 -305 365 -598 398 -652 33 -54 162 -265 287 -470 125 -205 274 -449 332 -543 57 -93 155 -253 217 -355 62 -102 248 -405 412 -675 165 -269 394 -645 510 -835 115 -190 249 -408 297 -485 166 -268 270 -442 270 -452 0 -5 -18 -24 -40 -42 -97 -77 -198 -251 -236 -401 -25 -101 -25 -259 0 -360 56 -224 220 -430 419 -523 205 -98 487 -98 680 0 180 90 338 266 396 440 32 97 54 239 46 308 -18 174 -75 322 -167 436 -124 154 -265 241 -462 284 -110 25 -260 17 -381 -20 -49 -15 -96 -28 -103 -29 -11 -1 -106 139 -164 242 -16 28 -673 1103 -1115 1825 -183 298 -337 551 -343 562 -6 11 -18 32 -28 47 -15 24 -175 286 -672 1100 -63 103 -218 357 -345 565 -126 207 -262 429 -301 492 -113 184 -676 1107 -1073 1758 -200 329 -384 628 -408 665 -23 37 -43 69 -43 72 0 3 -13 24 -28 48 -16 24 -154 249 -308 501 -153 251 -287 469 -296 485 -9 15 -23 37 -30 50 -13 22 -684 1120 -898 1470 l-115 187 -42 -85z m6688 -10254 c275 -97 399 -391 275 -650 -49 -102 -110 -162 -218 -216 -77 -38 -96 -43 -175 -47 -108 -7 -178 11 -275 68 -84 49 -130 102 -182 209 -40 83 -41 87 -41 190 0 103 1 107 41 191 23 48 58 105 79 127 119 133 330 187 496 128z" id="path40"/> <path d="M24910 16628 c-91 -88 -295 -287 -455 -442 -159 -154 -303 -294 -320 -311 -17 -16 -108 -104 -201 -195 -93 -91 -324 -316 -514 -500 -190 -184 -417 -405 -505 -491 -88 -86 -234 -228 -324 -315 -91 -87 -183 -177 -205 -200 -23 -22 -58 -55 -78 -73 l-37 -32 -38 24 c-163 101 -390 132 -589 82 -119 -30 -196 -67 -289 -138 -133 -101 -240 -268 -281 -437 -25 -101 -25 -260 0 -360 56 -224 220 -430 419 -523 205 -98 487 -98 680 0 180 90 338 266 396 440 32 97 54 239 46 308 -18 172 -68 306 -159 425 l-57 75 133 129 c73 71 216 210 319 310 102 100 250 244 330 321 79 77 293 285 474 462 182 176 344 333 360 348 17 15 116 111 220 214 187 183 681 662 863 837 l93 89 -58 57 -58 57 -165 -161z m-2929 -2762 c141 -50 237 -142 294 -283 23 -57 27 -83 27 -164 0 -84 -4 -104 -30 -167 -56 -135 -119 -199 -258 -264 -52 -24 -83 -32 -153 -36 -106 -6 -176 12 -273 69 -84 49 -130 102 -182 209 -40 83 -41 87 -41 190 0 103 1 107 41 191 23 48 58 105 79 127 119 133 330 187 496 128z" id="path42"/> <path d="M35448 16747 c-38 -18 -68 -35 -68 -38 0 -3 282 -223 628 -489 345 -266 989 -764 1432 -1105 820 -632 1518 -1171 2075 -1600 171 -131 312 -239 314 -241 1 -1 -6 -29 -17 -61 -74 -214 -64 -418 31 -616 68 -143 218 -293 360 -360 205 -98 487 -98 680 0 180 90 338 266 396 440 32 97 54 239 46 308 -17 158 -64 294 -139 399 -153 214 -385 336 -641 336 -98 0 -242 -30 -329 -68 -73 -33 -167 -101 -238 -174 l-67 -69 -488 378 c-268 207 -522 403 -563 435 -41 31 -150 115 -241 185 -91 71 -181 139 -199 153 -18 14 -345 266 -726 560 -2342 1809 -2148 1660 -2166 1659 -7 0 -43 -15 -80 -32z m5243 -3361 c141 -50 237 -142 294 -283 23 -57 27 -83 27 -164 0 -84 -4 -104 -30 -167 -56 -135 -119 -199 -258 -264 -52 -24 -83 -32 -153 -36 -106 -6 -176 12 -273 69 -84 49 -130 102 -182 209 -40 83 -41 87 -41 190 0 103 1 107 41 191 23 48 58 105 79 127 119 133 330 187 496 128z" id="path44"/> <path d="M33933 16450 c69 -75 361 -401 421 -469 27 -31 86 -96 131 -146 45 -49 185 -205 310 -345 126 -140 267 -298 314 -350 48 -52 122 -135 166 -185 44 -49 98 -110 121 -135 23 -25 86 -95 140 -156 150 -168 302 -338 604 -674 42 -47 141 -157 220 -245 161 -180 253 -282 391 -434 52 -58 135 -150 184 -206 50 -56 223 -249 385 -430 162 -181 320 -356 350 -390 30 -34 127 -142 215 -240 88 -98 184 -205 214 -239 30 -33 88 -99 131 -146 42 -47 137 -152 211 -235 366 -408 494 -550 499 -555 3 -3 59 -66 125 -140 66 -74 181 -203 257 -286 l137 -152 -25 -23 c-86 -81 -176 -243 -210 -379 -25 -101 -25 -259 0 -360 56 -224 220 -430 419 -523 205 -98 487 -98 680 0 180 90 338 266 396 440 32 97 54 239 46 308 -17 158 -64 294 -139 399 -153 214 -385 336 -641 336 -104 0 -248 -31 -342 -75 -30 -14 -57 -25 -58 -25 -2 0 -52 55 -111 123 -60 67 -151 169 -203 227 -131 146 -225 250 -386 430 -312 348 -394 439 -470 525 -44 50 -83 92 -86 95 -3 3 -30 32 -59 65 -29 33 -88 98 -130 145 -182 203 -277 308 -314 350 -21 25 -60 68 -85 95 -26 28 -100 111 -166 185 -117 132 -227 255 -390 435 -45 50 -146 162 -225 250 -340 381 -787 879 -910 1015 -42 47 -119 133 -171 191 -52 58 -206 230 -344 383 -137 154 -295 329 -350 391 -55 61 -172 192 -260 290 -88 98 -184 205 -214 239 -29 33 -72 81 -95 106 -22 25 -79 88 -126 140 -47 52 -87 97 -90 100 -8 8 -244 273 -265 298 -15 17 -30 22 -70 23 -27 0 -80 3 -117 7 l-66 8 51 -56z m6198 -6294 c275 -97 399 -391 275 -650 -49 -102 -110 -162 -218 -216 -77 -38 -96 -43 -175 -47 -108 -7 -178 11 -275 68 -84 49 -130 102 -182 209 -40 83 -41 87 -41 190 0 103 1 107 41 191 23 48 58 105 79 127 119 133 330 187 496 128z" id="path46"/> <path d="M27955 16296 c-153 -78 -134 -60 -272 -254 -34 -48 -79 -110 -100 -139 -21 -29 -64 -89 -96 -135 -32 -46 -108 -153 -169 -238 -61 -85 -129 -182 -152 -214 -22 -32 -56 -80 -74 -105 -18 -25 -48 -68 -68 -96 -19 -27 -59 -84 -89 -125 -57 -79 -143 -201 -160 -228 -5 -8 -37 -53 -70 -98 -33 -46 -82 -114 -108 -151 -161 -227 -216 -304 -252 -355 -22 -32 -67 -95 -100 -142 -33 -46 -85 -119 -115 -162 -83 -117 -120 -169 -191 -269 -36 -49 -119 -166 -184 -259 -66 -94 -179 -253 -252 -355 -72 -102 -146 -207 -165 -233 -18 -27 -78 -110 -133 -187 -55 -76 -127 -178 -160 -226 -33 -48 -82 -118 -110 -155 -27 -38 -111 -155 -185 -260 -74 -105 -174 -246 -222 -313 -48 -67 -104 -146 -125 -176 -21 -30 -54 -76 -73 -102 -19 -27 -73 -103 -120 -169 -47 -67 -135 -192 -197 -278 -61 -86 -126 -178 -145 -205 -18 -26 -60 -85 -93 -131 -33 -47 -76 -107 -95 -135 -19 -28 -41 -59 -48 -69 -25 -34 -88 -123 -152 -213 -36 -50 -86 -121 -112 -158 -26 -36 -70 -97 -97 -136 -28 -38 -99 -140 -160 -225 -60 -85 -120 -170 -133 -188 -13 -18 -34 -48 -48 -66 -14 -19 -52 -73 -85 -121 -33 -47 -77 -110 -97 -138 -20 -29 -47 -65 -58 -82 -12 -16 -45 -62 -73 -102 -29 -39 -95 -133 -147 -207 -52 -75 -123 -174 -157 -221 -35 -46 -63 -87 -63 -90 0 -3 -17 -28 -37 -55 -21 -27 -52 -69 -70 -93 l-31 -44 -89 23 c-170 44 -381 22 -538 -56 -149 -73 -275 -201 -349 -355 -59 -121 -81 -215 -81 -345 0 -181 58 -348 170 -488 65 -80 182 -175 268 -215 205 -98 487 -98 680 0 180 90 338 266 396 440 32 97 54 239 46 308 -10 101 -44 226 -80 300 -51 106 -157 229 -256 299 l-22 15 37 53 c21 29 62 87 91 128 30 41 67 93 82 115 15 22 68 96 117 165 50 69 110 155 135 191 26 36 70 99 99 140 61 85 345 485 507 715 61 85 121 170 135 189 14 18 52 72 85 119 33 48 114 162 180 255 66 92 165 232 220 310 55 78 123 173 150 211 28 38 73 101 100 140 28 39 73 102 100 140 28 38 70 99 95 135 41 59 147 209 417 588 54 76 114 160 133 187 111 157 137 193 193 272 34 48 89 126 122 174 33 47 71 101 85 120 14 18 35 48 48 66 13 18 123 174 245 345 122 172 247 348 277 391 245 347 343 485 395 556 33 45 65 89 70 98 13 20 97 140 174 248 34 47 69 96 79 110 9 14 64 91 122 172 58 81 163 230 235 330 71 101 161 228 200 283 39 55 127 179 195 275 112 158 238 337 527 743 54 76 119 166 144 201 57 78 62 86 52 85 -4 -1 -71 -33 -148 -73z m-5974 -8390 c141 -50 237 -142 294 -283 23 -57 27 -83 27 -164 0 -84 -4 -104 -30 -167 -56 -135 -119 -199 -258 -264 -53 -25 -83 -32 -154 -36 -109 -6 -195 18 -287 78 -78 52 -122 104 -170 205 -36 77 -38 84 -38 185 0 103 1 107 41 191 23 48 58 105 79 127 119 133 330 187 496 128z" id="path48"/> <path d="M31938 16096 c-31 -17 -59 -34 -63 -37 -3 -4 44 -143 104 -310 60 -167 273 -761 474 -1319 201 -558 407 -1130 457 -1270 50 -140 235 -653 410 -1140 175 -487 359 -997 408 -1135 285 -792 673 -1870 868 -2415 124 -344 250 -692 280 -774 29 -83 54 -153 54 -157 0 -3 -28 -20 -62 -37 -152 -75 -277 -203 -352 -357 -59 -121 -81 -215 -81 -345 0 -181 58 -348 170 -488 65 -80 182 -175 268 -215 205 -98 487 -98 680 0 180 90 338 266 396 440 32 97 54 239 46 308 -18 170 -68 306 -157 423 -156 207 -386 317 -645 311 l-105 -3 -224 625 c-866 2406 -1033 2872 -1419 3944 -202 561 -428 1189 -502 1395 -185 515 -487 1355 -728 2024 -110 308 -205 561 -210 562 -6 1 -36 -13 -67 -30z m3423 -8850 c141 -50 237 -142 294 -283 23 -57 27 -83 27 -164 0 -84 -4 -104 -30 -167 -56 -135 -119 -199 -258 -264 -53 -25 -83 -32 -154 -36 -109 -6 -195 18 -287 78 -78 52 -122 104 -170 205 -36 77 -38 84 -38 185 0 103 1 107 41 191 23 48 58 105 79 127 119 133 330 187 496 128z" id="path50"/> <path d="M29124 16003 c-3 -16 -8 -35 -11 -43 -8 -26 -75 -284 -78 -305 -2 -11 -20 -81 -40 -155 -20 -74 -45 -169 -55 -210 -10 -41 -32 -127 -48 -190 -17 -63 -58 -221 -91 -350 -51 -201 -94 -369 -191 -745 -10 -38 -43 -167 -73 -285 -31 -118 -86 -332 -122 -475 -37 -143 -71 -276 -76 -295 -4 -19 -15 -62 -24 -95 -9 -33 -24 -94 -34 -135 -10 -41 -30 -118 -44 -170 -14 -52 -56 -212 -92 -355 -37 -143 -85 -330 -107 -415 -52 -203 -61 -236 -161 -630 -47 -184 -102 -398 -122 -475 -20 -77 -47 -180 -60 -230 -13 -49 -50 -196 -84 -325 -33 -129 -78 -307 -101 -395 -23 -88 -57 -221 -76 -295 -20 -74 -41 -160 -49 -190 -7 -30 -23 -93 -35 -140 -12 -47 -23 -89 -25 -95 -4 -20 -17 -70 -22 -87 -4 -16 -17 -18 -97 -18 -110 0 -258 -34 -351 -80 -149 -73 -275 -201 -349 -355 -59 -121 -81 -215 -81 -345 0 -181 58 -348 170 -488 65 -80 182 -175 268 -215 205 -98 487 -98 680 0 180 90 338 266 396 440 32 97 54 239 46 308 -10 101 -44 226 -80 300 -76 157 -237 311 -389 371 -26 10 -50 24 -53 31 -3 7 5 49 17 95 11 46 39 153 61 238 23 85 49 189 59 230 10 41 34 136 53 210 20 74 60 232 90 350 31 118 71 276 90 350 20 74 63 241 96 370 70 273 165 644 191 745 10 39 48 187 85 330 36 143 70 274 75 290 9 30 34 128 50 195 4 19 35 141 68 270 34 129 79 305 101 390 80 314 153 598 183 710 16 63 33 131 38 150 8 35 68 270 134 520 19 74 58 225 86 335 28 110 72 279 96 375 25 96 70 272 101 390 30 118 61 240 68 270 7 30 27 107 43 170 17 63 30 115 29 117 -4 3 -138 63 -143 63 -2 0 -6 -12 -10 -27z m-1773 -7437 c141 -50 237 -142 294 -283 23 -57 27 -83 27 -164 0 -84 -4 -104 -30 -167 -56 -135 -119 -199 -258 -264 -52 -24 -83 -32 -153 -36 -106 -6 -176 12 -273 69 -84 49 -130 102 -182 209 -40 83 -41 87 -41 190 0 103 1 107 41 191 23 48 58 105 79 127 119 133 330 187 496 128z" id="path52"/> <path d="M30930 15783 c-14 -2 -40 -6 -57 -9 l-33 -5 -2 -5425 -3 -5426 -95 -24 c-228 -57 -402 -199 -504 -409 -59 -121 -81 -215 -81 -345 0 -181 58 -348 170 -488 65 -80 182 -175 268 -215 205 -98 487 -98 680 0 180 90 338 266 396 440 32 97 54 239 46 308 -18 174 -75 322 -167 436 -125 156 -267 243 -465 285 l-83 17 0 5434 0 5433 -22 -1 c-13 -1 -34 -3 -48 -6z m151 -11197 c141 -50 237 -142 294 -283 23 -57 27 -83 27 -164 0 -84 -4 -104 -30 -167 -56 -135 -119 -199 -258 -264 -136 -63 -309 -47 -443 43 -77 51 -120 104 -168 204 -36 77 -38 84 -38 185 0 103 1 107 41 191 23 48 58 105 79 127 119 133 330 187 496 128z" id="path54"/> </g></svg>